<?xml version="1.0" encoding="utf-8"?>
<!-- Generator: Adobe Illustrator 25.4.1, SVG Export Plug-In . SVG Version: 6.00 Build 0)  -->
<svg version="1.1" xmlns="http://www.w3.org/2000/svg" xmlns:xlink="http://www.w3.org/1999/xlink" x="0px" y="0px"
	 viewBox="0 0 1955 768" style="enable-background:new 0 0 1955 768;" xml:space="preserve">
<style type="text/css">
	.st0{opacity:0.38;}
	.st1{fill:#1D2D35;}
	.st2{fill:none;}
	.st3{fill:#1D4ED8;}
	.st4{fill:#FFFFFF;}
	.st5{fill:#F7931E;}
	.st6{font-family:'Identidad-ExtraBold';}
	.st7{font-size:108px;}
</style>
<g id="Capa_1">
	<g id="WSckvr_00000154406486473765402170000014150926961272665785_" class="st0">
		<g>
			<path class="st1" d="M-115.39,547.77c-8.79-1.26-17.61-0.37-26.42-0.39c-106.33-0.19-212.66-0.29-318.99-0.43
				c-2.26,0-4.73,0.46-6.02-2.21c0.11-12.49,0.44-25.03-2.15-37.31c-2.76-13.08-8.84-23.95-19.38-33.13
				c-11.73-10.21-24.79-13.43-39.46-13.45c-7.16-0.01-14.33-0.34-21.48-0.06c-4.23,0.17-5.33-1.49-5.33-5.4
				c-0.01-24.98-0.19-49.96-0.32-74.94c-0.09-17.8,0.31-35.6-0.91-53.38c-0.4-5.82,0.02-11.63,1.28-17.35
				c0.22-0.99,0.16-2.57,1.69-2.62c1.06-0.03,1.59,1.09,2.04,1.97c11.34,22.32,29.22,39.06,47.85,54.92
				c20.26,17.25,43.77,26.77,70.78,26.91c29.31,0.16,58.62,0.73,87.94,0.9c3.63,0.02,4.4,1.04,4.24,4.47
				c-0.41,8.64,0.19,17.37-0.74,25.95c-1.31,12.09,3.99,20.91,12.23,28.6c6.07,5.66,12.97,10.26,20.38,13.95
				c12.07,6.01,24.05,6.34,36.2-0.44c10.3-5.74,19.62-12.45,27.16-21.61c4.12-5,6.27-10.47,5.95-16.97
				c-0.49-9.97-1.25-19.94-1.02-29.95c0.08-3.31,0.57-4.3,4.34-4.17c29.47,0.98,58.94,1.29,88.42,0.05
				c12.5-0.53,24-4.78,34.92-10.37c32.92-16.83,59.93-40.04,77.47-73.21c1.78-3.37,3.81-6.6,5.73-9.89
				c2.57,4.37,3.78,9.11,3.78,14.16c-0.01,48.85-0.02,97.71-0.03,146.56c0,0.99,0.07,1.99,0.1,2.98
				c-11.64,0.02-23.29,0.49-34.9-0.04c-22.8-1.03-45.66,19.76-51.33,37.08C-116.66,515.02-116.17,531.33-115.39,547.77z"/>
			<path class="st1" d="M-352.02,190.04c-0.14,0.82-0.34,1.64-0.4,2.46c-0.42,6.29-0.41,6.29,6,6.46c6.86,0.17,6.84,0.17,6.89,7.01
				c0.3,37.79,0.6,75.59,0.91,113.38c0.01,1.65,0.26,3.26-1.53,4.39c-6.92,4.37-7.95,11.23-7.57,18.59
				c0.47,9.14,0.95,18.29,1.62,27.42c0.25,3.41-0.76,4.61-4.35,4.58c-28.64-0.26-57.29,0.02-85.92-0.57
				c-23.41-0.48-43.91-8.78-60.42-25.78c-11.25-11.58-22.41-23.27-32.51-35.89c-16.34-20.42-21.26-44.93-24.4-69.96
				c-0.89-7.08-0.89-14.29-1.09-21.44c-0.36-13.12,7.52-21.53,20.6-21.56c29.97-0.07,59.95,0.14,89.92,0.16
				c22.15,0.01,44.29-0.18,66.44-0.06c4.06,0.02,5.29-1.49,5.03-5.26c-0.61-8.8-0.87-17.62-1.59-26.41
				c-2.05-25.02,18.66-40.3,37.37-40.45c29.64-0.22,59.28-0.3,88.91-0.98c19.39-0.45,33.7,7.15,42.91,24.24
				c3.05,12.96,1.39,26.1,1.52,39.17c0.03,3.25-1.56,3.38-4.09,2.97c-5.75-0.93-11.54-1.41-17.37-1.05
				c-0.33-0.79-0.65-1.58-0.98-2.37c-0.04-3.34-0.08-6.69-0.12-10.03c-0.11-2.06-0.23-4.12-0.34-6.18
				c0-12.04-6.46-18.53-18.36-18.41c-10.31,0.11-20.63,0.41-30.94,0.37c-19.8-0.08-39.6-0.38-59.4-0.52
				c-6.68-0.05-16.33,7.55-16.57,13.31C-352.17,175.07-351.98,182.56-352.02,190.04z"/>
			<path class="st1" d="M-26.43,212.2c1.1,16.68-1.1,33.07-4.22,49.39c-0.22,1.13-0.29,2.28-0.43,3.42
				c-8.74,22.34-21.73,42.4-36.52,60.86c-10.61,13.23-23.06,25.26-38.11,34.46c-11.32,6.91-22.72,12.32-35.73,13.97
				c-6.57,0.83-13.29,0.66-19.94,0.67c-22.81,0.03-45.62-0.16-68.43-0.01c-3.98,0.03-5.16-1.05-4.92-5.02
				c0.64-10.3,0.85-20.62,1.29-30.93c0.25-5.79-1.05-11.08-5.77-14.72c-2.25-1.73-1.84-3.69-1.84-5.75
				c-0.01-36.79,0.04-73.58,0.01-110.38c-0.01-9.07-0.12-9.04,9.17-9.21c2.3-0.04,4.69,0.32,6.86-0.86
				c5.77,0.02,11.61-0.49,17.31,0.2c6.89,0.83,13.71,1.55,20.63,0.89c11.96,0.08,23.91,0.26,35.87,0.23
				c34.39-0.07,68.78-0.09,103.17-0.44C-37.76,198.87-30.37,202.45-26.43,212.2z"/>
			<path class="st1" d="M-259.91,259.06c0,18.47-0.14,36.95,0.1,55.42c0.06,4.65-1.36,5.62-5.85,5.43
				c-17.13-0.76-34.29-0.65-51.4,0.57c-3.62,0.26-2.8-1.7-2.82-3.49c-0.17-21.64-0.38-43.28-0.42-64.92
				c-0.03-16.14,0.29-32.29,0.21-48.43c-0.02-3.7,1.14-4.91,4.8-4.88c17.64,0.16,35.28,0.22,52.92,0.05
				c3.68-0.03,3.43,1.87,3.43,4.32c-0.04,18.64-0.02,37.28-0.02,55.93C-259.28,259.06-259.6,259.06-259.91,259.06z"/>
			<path class="st1" d="M-257.92,366.99c-1.52,19.59-1.36,39.22-0.93,58.84c0.11,5.14-1.11,9.02-5.16,12.12
				c-2.9,2.22-5.63,4.67-8.49,6.94c-10.83,8.58-20.57,9.99-36.13-0.5c-9.84-6.63-13.3-14.42-12.87-26.38
				c0.77-21.41-0.74-42.88-3.35-64.21c-1.82-14.93-1.67-14.71,13.23-15.88c17.79-1.39,35.55-1.15,53.32,0.06
				c1.8,0.12,3.57,0.67,5.35,1.02c-0.15,0.98-0.09,2.06-0.49,2.92C-257.2,349.88-257.3,358.48-257.92,366.99z M-281.17,365.28
				c-0.05,0-0.1,0-0.15,0c0-1.83,0.08-3.66-0.01-5.49c-0.55-11.55-2.53-13.07-14.15-11.76c-3.22,0.36-4.4,1.88-4.29,4.8
				c0.22,6.15,0.51,12.3,0.77,18.45c0.15,3.52,2.56,5.43,5.41,6.34c7.52,2.41,12.62-1.57,12.42-9.35
				C-281.19,367.28-281.17,366.28-281.17,365.28z M-290.68,400.32c-3.77-0.11-7.31,3-7.44,6.53c-0.17,4.52,3.73,9.03,7.86,9.08
				c3.67,0.05,7.68-4.12,7.94-8.24C-282.06,403.72-285.76,400.46-290.68,400.32z"/>
			<path class="st1" d="M-485,546.85c-9.97,0.06-19.93,0.06-29.9,0.19c-5.9,0.08-11.48-1.46-17.07-3.05
				c-12.4-7.94-20.89-18.73-22.48-33.64c-1.1-10.23-0.92-20.6-1.4-30.9c-0.09-2.03,0.78-2.65,2.62-2.57
				c12.63,0.53,25.39,0.14,37.87,1.77c15.73,2.05,25.69,14.72,28.74,30.58C-484.18,521.84-486.02,534.34-485,546.85z"/>
			<path class="st1" d="M-25.05,478.32c0.03,8.65,0.38,17.32,0.02,25.95c-1.11,26.81-17.03,44.86-44.78,43.78
				c-9.29-0.36-18.6-0.38-27.9-0.56c0.5-11.29-1.08-22.66,0.48-33.89c2.06-14.79,11.51-24.57,23.49-32.27
				c1.45-0.93,3.45-1.12,5.24-1.4c11.4-1.76,22.93-0.22,34.36-1.21c0.36-0.01,0.73-0.03,1.09-0.04
				C-30.37,478.83-27.7,478.95-25.05,478.32z"/>
		</g>
	</g>
</g>
<g id="Capa_2">
	<path class="st1" d="M-38.82,198.71l-195.19-0.61l0.01-0.1l-19.71,0.04l-34.87-0.11l0,0.18l-250.97,0.48
		c-8.11,0.03-14.67,6.61-14.67,14.72v11.98c0,26.38,8.36,52.09,23.89,73.42l29.04,39.9c16.28,22.37,42.29,35.6,69.96,35.6
		l144.02,0.1l0,0.03h140.27c27.67,0,53.67-13.23,69.96-35.6l29.04-39.9c15.53-21.33,23.89-47.03,23.89-73.42v-11.98
		C-24.15,205.32-30.71,198.73-38.82,198.71z"/>
	<polygon class="st2" points="682.6,257.91 702.31,257.88 702.31,257.88 682.6,257.91 647.73,257.8 647.73,257.98 647.73,257.8 	"/>
	<path class="st2" d="M53.56,320.35c-1.14-4.75-2.01-9.58-2.59-14.45C51.54,310.77,52.41,315.6,53.56,320.35z"/>
	<path class="st2" d="M53.56,320.35c1.79,7.43,4.27,14.67,7.39,21.65h0C57.83,335.02,55.34,327.78,53.56,320.35z"/>
	<path class="st2" d="M907.71,318.23c-0.22,0.8-0.45,1.6-0.69,2.4C907.26,319.83,907.49,319.03,907.71,318.23z"/>
	<polygon class="st2" points="702.3,257.97 702.3,257.97 702.3,257.97 	"/>
	<path class="st2" d="M50.09,279.18L50.09,279.18c0-1.01,0.1-2,0.3-2.96C50.19,277.17,50.09,278.16,50.09,279.18z"/>
	<path class="st3" d="M453.6,497h-76.94v45.93c0,23.23,18.83,42.07,42.07,42.07h62.93v-59.94C481.66,509.56,469.09,497,453.6,497z"
		/>
	<path class="st3" d="M801.66,525.06V585h62.93c23.23,0,42.07-18.83,42.07-42.07V497h-76.94C814.22,497,801.66,509.56,801.66,525.06
		z"/>
	<path class="st1" d="M497.25,433.73c2.56,0.23,5.14,0.35,7.73,0.35l144.02,0.1l-144.02-0.1
		C502.39,434.07,499.81,433.95,497.25,433.73z"/>
	<path class="st1" d="M461.3,422.24c-1.45-0.85-2.88-1.74-4.28-2.68C458.42,420.5,459.85,421.39,461.3,422.24z"/>
	<path class="st1" d="M649,434.2l0-0.03L649,434.2l140.27,0c6.05,0,12.03-0.63,17.83-1.86c-5.81,1.22-11.78,1.86-17.83,1.86H649z"/>
	<path class="st1" d="M470.3,426.82c-2.31-1.01-4.58-2.12-6.79-3.33C465.72,424.69,467.98,425.8,470.3,426.82z"/>
	<path class="st1" d="M497.25,433.73c-9.38-0.84-18.47-3.2-26.95-6.91C478.78,430.53,487.87,432.89,497.25,433.73z"/>
	<path class="st1" d="M73.98,364.57c-1.94-2.67-3.77-5.4-5.48-8.2C70.21,359.17,72.04,361.9,73.98,364.57z"/>
	<path class="st1" d="M107.85,410.51c-1.13-1.29-2.22-2.61-3.27-3.98C105.64,407.9,106.73,409.23,107.85,410.51z"/>
	<path class="st1" d="M830.75,423.61c-1.48,0.81-2.98,1.57-4.5,2.29C827.77,425.18,829.27,424.41,830.75,423.61z"/>
	<path class="st1" d="M448.93,413.47c-1.29-1.1-2.55-2.23-3.78-3.41C446.38,411.23,447.64,412.37,448.93,413.47z"/>
	<path class="st1" d="M60.95,342L60.95,342c1.54,3.45,3.22,6.83,5.07,10.14C64.16,348.83,62.48,345.45,60.95,342z"/>
	<path class="st1" d="M821.63,427.92c-1.56,0.63-3.14,1.21-4.74,1.75C818.48,429.13,820.06,428.55,821.63,427.92z"/>
	<path class="st1" d="M816.88,429.67c-1.6,0.54-3.21,1.03-4.84,1.48C813.67,430.7,815.29,430.21,816.88,429.67z"/>
	<polygon class="st4" points="702.31,257.88 702.31,257.88 702.31,257.88 	"/>
	<polygon class="st4" points="702.3,257.97 702.31,257.88 702.31,257.88 	"/>
	<path class="st4" d="M910.61,304.88c-0.72,4.51-1.69,8.96-2.9,13.35C908.92,313.84,909.89,309.39,910.61,304.88z"/>
	<polygon class="st4" points="897.49,258.58 702.3,257.97 702.3,257.97 	"/>
	<path class="st4" d="M55.43,267.84c-0.72,0.6-1.39,1.27-1.99,1.99C54.04,269.1,54.7,268.43,55.43,267.84z"/>
	<path class="st4" d="M909.66,265.09c-1.05-1.56-2.4-2.92-3.96-3.97C907.26,262.17,908.6,263.52,909.66,265.09z"/>
	<path class="st4" d="M901.36,336c2.22-5,4.12-10.13,5.67-15.37C905.48,325.87,903.58,331,901.36,336L901.36,336z"/>
	<path class="st4" d="M912.16,285.28c0,6.6-0.52,13.15-1.55,19.6C911.64,298.43,912.16,291.88,912.16,285.28V273.3
		c0-3.04-0.92-5.87-2.5-8.21c1.58,2.35,2.5,5.17,2.5,8.21V285.28z"/>
	<path class="st4" d="M859.22,398.59l29.04-39.9c0.97-1.33,1.91-2.68,2.83-4.05c-0.91,1.37-1.86,2.72-2.83,4.05L859.22,398.59z"/>
	<path class="st4" d="M900.69,337.53c0.23-0.51,0.44-1.02,0.67-1.53l0,0C901.13,336.51,900.92,337.02,900.69,337.53z"/>
	<path class="st4" d="M900.69,337.53c-2.73,5.93-5.94,11.65-9.59,17.12C894.75,349.18,897.96,343.46,900.69,337.53z"/>
	<path class="st4" d="M849.09,410.18c1.84-1.76,3.61-3.61,5.3-5.55C852.7,406.57,850.93,408.42,849.09,410.18z"/>
	<path class="st4" d="M847.23,411.92c-3.15,2.84-6.49,5.44-10,7.77C840.74,417.35,844.08,414.76,847.23,411.92z"/>
	<g>
		<path class="st5" d="M-118.38,304C-85.04,304-58,331.04-58,364.38v116.23c0,33.35-27.04,60.38-60.38,60.38h-131.23
			c-33.35,0-60.38-27.04-60.38-60.38V364.38c0-33.35,27.04-60.38,60.38-60.38H-118.38 M-118.38,287h-131.23
			c-42.67,0-77.38,34.71-77.38,77.38v116.23c0,42.67,34.71,77.38,77.38,77.38h131.23C-75.71,558-41,523.29-41,480.62V364.38
			C-41,321.71-75.71,287-118.38,287L-118.38,287z"/>
	</g>
	<path class="st2" d="M688.41,370c19.72,0,35.71-15.99,35.71-35.71v-76.05h-154v76.05"/>
	<path class="st1" d="M574.62,239.71c0-17.21,14-31.21,31.21-31.21h82.57c17.21,0,31.21,14,31.21,31.21v3.02h26v-3.02
		c0-31.55-25.67-57.21-57.21-57.21h-82.57c-31.55,0-57.21,25.67-57.21,57.21v3.02h26V239.71z"/>
	<path class="st3" d="M909.66,265.09c-1.05-1.56-2.4-2.92-3.96-3.97c-2.34-1.59-5.16-2.52-8.21-2.53l-151.86-0.47v65.18
		c0,23.16-13.84,43.9-35.27,52.83c-4.56,1.9-9.33,3.19-14.23,3.85v20.66l-79.3-31.47l79.3-33.98v18.35c3.55-0.9,6.92-2.43,9.95-4.51
		c8.49-5.84,13.55-15.46,13.55-25.73v-65.26l-17.32-0.05v0l0-0.01l0.01-0.09l-19.71,0.04l-34.87-0.11l0,0.18l-73.1,0.14v65.17
		c0,15.02,10.69,27.92,25.43,30.68l3.71,0.7l-0.29,26l-5.02-0.65c-28.41-3.68-49.83-28.07-49.83-56.72v-65.12l-151.86,0.29
		c-3.55,0.01-6.8,1.28-9.34,3.38c-0.72,0.6-1.39,1.27-1.99,1.99c-1.49,1.82-2.56,4-3.05,6.39c-0.2,0.96-0.3,1.95-0.3,2.96v11.98
		c0,4.95,0.29,9.87,0.87,14.74c0.58,4.87,1.45,9.7,2.59,14.45c1.79,7.43,4.27,14.67,7.39,21.65c1.54,3.45,3.22,6.83,5.07,10.14
		c0.8,1.43,1.63,2.84,2.49,4.24c1.71,2.8,3.54,5.53,5.48,8.2l29.04,39.9c0.51,0.7,1.03,1.39,1.55,2.07
		c1.06,1.36,2.15,2.69,3.27,3.98c1.69,1.93,3.46,3.78,5.3,5.55c1.23,1.17,2.49,2.31,3.78,3.41c2.58,2.19,5.28,4.23,8.09,6.1
		c1.4,0.93,2.83,1.83,4.28,2.68c0.73,0.42,1.46,0.84,2.2,1.24c2.21,1.21,4.48,2.32,6.79,3.33c8.48,3.71,17.57,6.07,26.95,6.91
		c2.56,0.23,5.14,0.35,7.73,0.35l144.02,0.1l0,0.03h140.27c6.05,0,12.03-0.63,17.83-1.86c1.66-0.35,3.31-0.75,4.94-1.19
		c1.63-0.44,3.25-0.94,4.84-1.48c1.6-0.54,3.18-1.12,4.74-1.75s3.1-1.3,4.63-2.02c1.52-0.72,3.02-1.48,4.5-2.29
		c2.21-1.21,4.38-2.52,6.48-3.92c3.51-2.33,6.85-4.93,10-7.77c0.63-0.57,1.25-1.15,1.87-1.73c1.84-1.76,3.61-3.61,5.3-5.55
		c1.69-1.93,3.3-3.95,4.83-6.05l29.04-39.9c0.97-1.33,1.91-2.68,2.83-4.05c3.66-5.47,6.86-11.19,9.59-17.12
		c0.23-0.51,0.44-1.02,0.67-1.53c2.22-5,4.12-10.13,5.67-15.37c0.24-0.8,0.47-1.6,0.69-2.4c1.2-4.39,2.18-8.84,2.9-13.35
		c1.03-6.45,1.55-13.01,1.55-19.6V273.3C912.16,270.26,911.24,267.43,909.66,265.09z"/>
	<rect x="942.72" y="335.23" class="st2" width="976.28" height="232.77"/>
	<text transform="matrix(1 0 0 1 942.7197 414.9614)"><tspan x="0" y="0" class="st1 st6 st7">HISTORIAL</tspan><tspan x="0" y="101" class="st1 st6 st7">LABORAL</tspan></text>
	<polygon class="st2" points="521.85,1082.17 541.57,1082.13 541.57,1082.13 521.85,1082.17 486.98,1082.06 486.99,1082.24 
		486.98,1082.06 	"/>
	<path class="st2" d="M746.97,1142.48c-0.22,0.8-0.45,1.6-0.69,2.4C746.52,1144.09,746.75,1143.29,746.97,1142.48z"/>
	<polygon class="st2" points="541.56,1082.23 541.56,1082.22 541.56,1082.23 	"/>
	<path class="st3" d="M292.86,1321.26h-76.94v45.93c0,23.23,18.83,42.07,42.07,42.07h62.93v-59.94
		C320.91,1333.82,308.35,1321.26,292.86,1321.26z"/>
	<path class="st3" d="M640.91,1349.31v59.94h62.93c23.23,0,42.07-18.83,42.07-42.07v-45.93h-76.94
		C653.48,1321.26,640.91,1333.82,640.91,1349.31z"/>
	<path class="st1" d="M336.51,1257.98c2.56,0.23,5.14,0.35,7.73,0.35l144.02,0.1l-144.02-0.1
		C341.65,1258.33,339.07,1258.21,336.51,1257.98z"/>
	<path class="st1" d="M300.56,1246.5c-1.45-0.85-2.88-1.74-4.28-2.68C297.68,1244.75,299.11,1245.65,300.56,1246.5z"/>
	<path class="st1" d="M488.26,1258.45l0-0.03L488.26,1258.45l140.27,0c6.05,0,12.03-0.63,17.83-1.86
		c-5.81,1.22-11.78,1.86-17.83,1.86H488.26z"/>
	<path class="st1" d="M309.56,1251.07c-2.31-1.01-4.58-2.12-6.79-3.33C304.98,1248.95,307.24,1250.06,309.56,1251.07z"/>
	<path class="st1" d="M336.51,1257.98c-9.38-0.84-18.47-3.2-26.95-6.91C318.04,1254.78,327.13,1257.14,336.51,1257.98z"/>
	<path class="st1" d="M670.01,1247.86c-1.48,0.81-2.98,1.57-4.5,2.29C667.03,1249.43,668.53,1248.67,670.01,1247.86z"/>
	<path class="st1" d="M288.19,1237.72c-1.29-1.1-2.55-2.23-3.78-3.41C285.64,1235.49,286.9,1236.63,288.19,1237.72z"/>
	<path class="st1" d="M712.23,1232.85c-19.42,26.67-50.71,42.6-83.7,42.6H488.26l-16.87-0.03l0-0.01l-127.15-0.09
		c-32.99,0-64.28-15.92-83.7-42.6l-29.04-39.9c-6.26-8.59-11.45-17.75-15.58-27.31v138.73h76.94c24.84,0,45.06,20.21,45.06,45.06
		v59.94h286v-59.94c0-24.84,20.21-45.06,45.06-45.06h76.94v-118.13c-1.49,2.31-3.02,4.59-4.64,6.83L712.23,1232.85z"/>
	<path class="st1" d="M660.88,1252.18c-1.56,0.63-3.14,1.21-4.74,1.75C657.74,1253.39,659.32,1252.81,660.88,1252.18z"/>
	<path class="st1" d="M656.14,1253.93c-1.6,0.54-3.21,1.03-4.84,1.48C652.93,1254.96,654.55,1254.47,656.14,1253.93z"/>
	<polygon class="st4" points="541.57,1082.13 541.57,1082.13 541.57,1082.13 	"/>
	<polygon class="st4" points="541.56,1082.22 541.57,1082.13 541.57,1082.13 	"/>
	<path class="st4" d="M749.87,1129.14c-0.72,4.51-1.69,8.96-2.9,13.35C748.17,1138.1,749.15,1133.64,749.87,1129.14z"/>
	<polygon class="st4" points="736.75,1082.84 541.56,1082.23 541.56,1082.23 	"/>
	<path class="st4" d="M748.91,1089.34c-1.05-1.56-2.4-2.92-3.96-3.97C746.51,1086.43,747.86,1087.78,748.91,1089.34z"/>
	<path class="st4" d="M740.62,1160.26c2.22-5,4.12-10.13,5.67-15.37C744.74,1150.13,742.84,1155.26,740.62,1160.26L740.62,1160.26z"
		/>
	<path class="st4" d="M751.42,1109.54c0,6.6-0.52,13.15-1.55,19.6C750.9,1122.69,751.42,1116.13,751.42,1109.54v-11.98
		c0-3.04-0.92-5.87-2.5-8.21c1.58,2.35,2.5,5.17,2.5,8.21V1109.54z"/>
	<path class="st4" d="M698.48,1222.85l29.04-39.9c0.97-1.33,1.91-2.68,2.83-4.05c-0.91,1.37-1.86,2.72-2.83,4.05L698.48,1222.85z"/>
	<path class="st4" d="M739.95,1161.79c0.23-0.51,0.44-1.02,0.67-1.53l0,0C740.39,1160.77,740.18,1161.28,739.95,1161.79z"/>
	<path class="st4" d="M739.95,1161.79c-2.73,5.93-5.94,11.65-9.59,17.12C734.01,1173.44,737.21,1167.71,739.95,1161.79z"/>
	<path class="st4" d="M688.35,1234.44c1.84-1.76,3.61-3.61,5.3-5.55C691.96,1230.83,690.19,1232.68,688.35,1234.44z"/>
	<path class="st4" d="M686.49,1236.18c-3.15,2.84-6.49,5.44-10,7.77C679.99,1241.61,683.34,1239.02,686.49,1236.18z"/>
	<path class="st2" d="M527.67,1194.26c19.72,0,35.71-15.99,35.71-35.71v-76.05h-154v76.05"/>
	<path class="st1" d="M413.88,1063.97c0-17.21,14-31.21,31.21-31.21h82.57c17.21,0,31.21,14,31.21,31.21v3.02h26v-3.02
		c0-31.55-25.67-57.21-57.21-57.21H445.1c-31.55,0-57.21,25.67-57.21,57.21v3.02h26V1063.97z"/>
	<path class="st3" d="M748.91,1089.34c-1.05-1.56-2.4-2.92-3.96-3.97c-2.34-1.59-5.16-2.52-8.21-2.53l-151.86-0.47v65.18
		c0,23.16-13.84,43.9-35.27,52.83c-4.56,1.9-9.33,3.19-14.23,3.85v20.66l-79.3-31.47l79.3-33.98v18.35c3.55-0.9,6.92-2.43,9.95-4.51
		c8.49-5.84,13.55-15.46,13.55-25.73v-65.26l-17.32-0.05v0l0-0.01l0.01-0.09l-19.71,0.04l-34.87-0.11l0,0.18l-73.1,0.14v65.17
		c0,15.02,10.69,27.92,25.43,30.68l3.71,0.7l-0.29,26l-5.02-0.65c-28.41-3.68-49.83-28.07-49.83-56.72v-65.12l-151.86,0.29
		c-3.55,0.01-6.8,1.28-9.34,3.38c-0.72,0.6-1.39,1.27-1.99,1.99c-1.49,1.82-2.56,4-3.05,6.39c-0.2,0.96-0.3,1.95-0.3,2.96v11.98
		c0,4.95,0.29,9.87,0.87,14.74c0.58,4.87,1.45,9.7,2.59,14.45c1.79,7.43,4.27,14.67,7.39,21.65c1.54,3.45,3.22,6.83,5.07,10.14
		c0.8,1.43,1.63,2.84,2.49,4.24c1.71,2.8,3.54,5.53,5.48,8.2l29.04,39.9c0.51,0.7,1.03,1.39,1.55,2.07
		c1.06,1.36,2.15,2.69,3.27,3.98c1.69,1.93,3.46,3.78,5.3,5.55c1.23,1.18,2.49,2.31,3.78,3.41c2.58,2.19,5.28,4.23,8.09,6.1
		c1.4,0.93,2.83,1.83,4.28,2.68c0.73,0.42,1.46,0.84,2.2,1.24c2.21,1.21,4.48,2.32,6.79,3.33c8.48,3.71,17.57,6.07,26.95,6.91
		c2.56,0.23,5.14,0.35,7.73,0.35l144.02,0.1l0,0.03h140.27c6.05,0,12.03-0.63,17.83-1.86c1.66-0.35,3.31-0.75,4.94-1.19
		c1.63-0.44,3.25-0.94,4.84-1.48c1.6-0.54,3.18-1.12,4.74-1.75c1.56-0.63,3.1-1.3,4.63-2.02c1.52-0.72,3.02-1.48,4.5-2.29
		c2.21-1.21,4.38-2.52,6.48-3.92c3.51-2.33,6.85-4.93,10-7.77c0.63-0.57,1.25-1.15,1.87-1.73c1.84-1.76,3.61-3.61,5.3-5.55
		s3.3-3.95,4.83-6.05l29.04-39.9c0.97-1.33,1.91-2.68,2.83-4.05c3.66-5.47,6.86-11.19,9.59-17.12c0.23-0.51,0.44-1.02,0.67-1.53
		c2.22-5,4.12-10.13,5.67-15.37c0.24-0.8,0.47-1.6,0.69-2.4c1.2-4.39,2.18-8.84,2.9-13.35c1.03-6.45,1.55-13.01,1.55-19.6v-11.98
		C751.42,1094.52,750.5,1091.69,748.91,1089.34z"/>
	<path class="st4" d="M461.95,1349.33h-36.78v38.79h-24.3v-94.08h24.3v35.8h36.78v-35.8h24.3v94.08h-24.3V1349.33z"/>
	<path class="st4" d="M508.06,1294.03h24.3v74.59H572v19.49h-63.94V1294.03z"/>
	<g>
		<path class="st1" d="M673.31,526.77l0.84-74.77H610l-0.84,74.77c0,16.69,14.36,30.23,32.08,30.23h0
			C658.95,557,673.31,543.47,673.31,526.77z M642,498c-7.17,0-13-5.83-13-13s5.83-13,13-13s13,5.83,13,13S649.17,498,642,498z"/>
		<path class="st1" d="M902.01,368.7l-29.04,39.9c-19.42,26.67-50.71,42.6-83.7,42.6h-98.1l-0.01,1l-0.84,74.69
			c-0.06,25.72-21.6,46.67-48.23,47.11V574h-0.84h0c-27.06,0-49.08-21.19-49.08-47.23v-0.1l0-0.1l0.84-74.77l0.01-0.68l-88.03-0.06
			c-32.99,0-64.28-15.92-83.7-42.6l-29.04-39.9c-6.26-8.59-11.45-17.75-15.58-27.31V480h76.94c24.84,0,45.06,20.21,45.06,45.06V585
			h286v-59.94c0-24.84,20.21-45.06,45.06-45.06h76.94V361.87C905.17,364.18,903.64,366.47,902.01,368.7z"/>
	</g>
</g>
</svg>
