<svg xmlns="http://www.w3.org/2000/svg" viewBox="0 0 535.5 402.5"><defs><style>.cls-1{fill:none;}.cls-2{fill:#1d4ed8;}.cls-3{fill:#1d2d35;}.cls-4{fill:#fff;}</style></defs><g id="Capa_2" data-name="Capa 2"><g id="Capa_2-2" data-name="Capa 2"><polygon class="cls-1" points="305.94 75.41 325.65 75.38 325.65 75.38 305.94 75.41 271.07 75.3 271.07 75.48 271.07 75.3 305.94 75.41"/><polygon class="cls-1" points="325.64 75.47 325.64 75.47 325.64 75.47 325.64 75.47"/><path class="cls-2" d="M76.94,314.5H0v45.93A42.06,42.06,0,0,0,42.07,402.5H105V342.56A28.06,28.06,0,0,0,76.94,314.5Z"/><path class="cls-2" d="M425,342.56V402.5h62.93A42.06,42.06,0,0,0,530,360.43V314.5H453.06A28.06,28.06,0,0,0,425,342.56Z"/><path class="cls-3" d="M120.59,251.23c2.56.22,5.14.34,7.74.34l144,.1-144-.1C125.73,251.57,123.15,251.45,120.59,251.23Z"/><path class="cls-3" d="M84.65,239.74q-2.18-1.28-4.29-2.68Q82.48,238.47,84.65,239.74Z"/><path class="cls-3" d="M272.34,251.7v0H412.61a86.83,86.83,0,0,0,17.84-1.86,86.83,86.83,0,0,1-17.84,1.86Z"/><path class="cls-3" d="M93.64,244.32c-2.31-1-4.58-2.13-6.79-3.34C89.06,242.19,91.33,243.3,93.64,244.32Z"/><path class="cls-3" d="M120.59,251.23a86.46,86.46,0,0,1-26.95-6.91A86.46,86.46,0,0,0,120.59,251.23Z"/><path class="cls-3" d="M454.09,241.11c-1.47.8-3,1.57-4.5,2.28C451.12,242.68,452.62,241.91,454.09,241.11Z"/><path class="cls-3" d="M72.28,231q-1.94-1.65-3.78-3.41Q70.35,229.32,72.28,231Z"/><path class="cls-3" d="M496.31,226.1a103.84,103.84,0,0,1-83.7,42.6H272.34l-16.86,0h0l-127.15-.09A103.84,103.84,0,0,1,44.62,226l-29-39.89A142.64,142.64,0,0,1,0,158.77V297.5H76.94A45.11,45.11,0,0,1,122,342.56V402.5H408V342.56a45.11,45.11,0,0,1,45.06-45.06H530V179.37c-1.49,2.31-3,4.6-4.64,6.83Z"/><path class="cls-3" d="M445,245.42q-2.34.95-4.74,1.75Q442.63,246.36,445,245.42Z"/><path class="cls-3" d="M440.23,247.17q-2.4.81-4.85,1.48Q437.83,248,440.23,247.17Z"/><polygon class="cls-4" points="325.65 75.38 325.65 75.38 325.65 75.38 325.65 75.38"/><polygon class="cls-4" points="325.64 75.47 325.65 75.38 325.65 75.38 325.64 75.47"/><polygon class="cls-4" points="520.83 76.08 325.64 75.47 325.64 75.47 520.83 76.08"/><path class="cls-4" d="M533,82.59a14.7,14.7,0,0,0-4-4A14.7,14.7,0,0,1,533,82.59Z"/><path class="cls-4" d="M524.7,153.5a124.21,124.21,0,0,0,5.67-15.37,124.21,124.21,0,0,1-5.67,15.37Z"/><path class="cls-4" d="M482.57,216.09l29-39.89q1.46-2,2.83-4-1.38,2-2.83,4Z"/><path class="cls-4" d="M524,155c.24-.51.45-1,.67-1.53h0C524.48,154,524.27,154.52,524,155Z"/><path class="cls-4" d="M524,155a124.07,124.07,0,0,1-9.59,17.12A124.07,124.07,0,0,0,524,155Z"/><path class="cls-4" d="M472.44,227.68q2.76-2.64,5.3-5.54Q475.21,225,472.44,227.68Z"/><path class="cls-4" d="M470.57,229.42a86.94,86.94,0,0,1-10,7.77A86.94,86.94,0,0,0,470.57,229.42Z"/><path class="cls-1" d="M311.76,187.5a35.71,35.71,0,0,0,35.71-35.71V75.73h-154v76.06"/><path class="cls-3" d="M198,57.21A31.24,31.24,0,0,1,229.18,26h82.58A31.24,31.24,0,0,1,343,57.21v3h26v-3A57.28,57.28,0,0,0,311.76,0H229.18A57.28,57.28,0,0,0,172,57.21v3h26Z"/><path class="cls-2" d="M533,82.59a14.69,14.69,0,0,0-12.17-6.51L369,75.61v65.18a57.2,57.2,0,0,1-49.5,56.68v20.66l-79.3-31.47,79.3-34V171A31.21,31.21,0,0,0,343,140.79V75.53l-17.33-.06h0v-.1l-19.71,0-34.87-.11v.18l-73.1.14v65.17a31.21,31.21,0,0,0,25.43,30.68l3.71.69-.29,26-5-.65A57.33,57.33,0,0,1,172,140.79V75.67L20.11,76a14.67,14.67,0,0,0-9.34,3.38,14.39,14.39,0,0,0-2,2,14.72,14.72,0,0,0-3,6.39,15.08,15.08,0,0,0-.3,3v12a124.91,124.91,0,0,0,.88,14.75,124,124,0,0,0,10,36.1c1.54,3.45,3.21,6.83,5.06,10.14.8,1.42,1.63,2.84,2.49,4.23,1.72,2.8,3.54,5.53,5.49,8.2l29,39.9c.51.7,1,1.39,1.55,2.07,1.06,1.36,2.15,2.69,3.28,4q2.53,2.91,5.3,5.55,1.84,1.75,3.78,3.41a86.26,86.26,0,0,0,8.08,6.09q2.11,1.41,4.29,2.68c.72.42,1.46.84,2.2,1.24,2.21,1.21,4.48,2.32,6.79,3.34a86.46,86.46,0,0,0,27,6.91c2.56.22,5.14.34,7.74.34l144,.1v0H412.61a86.83,86.83,0,0,0,17.84-1.86q2.49-.53,4.93-1.19t4.85-1.48q2.4-.81,4.74-1.75t4.62-2c1.53-.71,3-1.48,4.5-2.28q3.33-1.81,6.48-3.92a86.94,86.94,0,0,0,10-7.77c.63-.57,1.25-1.15,1.87-1.74q2.76-2.64,5.3-5.54t4.83-6l29-39.89q1.46-2,2.83-4A124.07,124.07,0,0,0,524,155c.24-.51.45-1,.67-1.53a124.21,124.21,0,0,0,5.67-15.37q.36-1.2.69-2.4a124.18,124.18,0,0,0,4.44-32.95v-12A14.63,14.63,0,0,0,533,82.59Z"/><path class="cls-4" d="M246,342.57H209.26v38.79H185V287.28h24.31v35.8H246v-35.8h24.3v94.08H246Z"/><path class="cls-4" d="M292.15,287.27h24.3v74.6h39.64v19.49H292.15Z"/></g></g></svg>